<svg width="40" height="40" viewBox="0 0 40 40" fill="none" xmlns="http://www.w3.org/2000/svg">
<path d="M18.3197 30.0001H4.99969V6.68005H31.6797V15.0001C31.6797 15.4534 31.8397 15.8467 32.1597 16.1801C32.4797 16.5134 32.873 16.6801 33.3397 16.6801C33.8064 16.6801 34.1997 16.5134 34.5197 16.1801C34.8397 15.8467 34.9997 15.4534 34.9997 15.0001V5.00006C34.9997 4.54672 34.8397 4.15339 34.5197 3.82005C34.1997 3.48672 33.7997 3.32005 33.3197 3.32005H3.31969C2.86635 3.32005 2.47969 3.48672 2.15969 3.82005C1.83969 4.15339 1.67969 4.54672 1.67969 5.00006V31.6801C1.67969 32.1334 1.83969 32.5201 2.15969 32.8401C2.47969 33.1601 2.86635 33.3201 3.31969 33.3201H18.3197C18.7997 33.3201 19.1997 33.1601 19.5197 32.8401C19.8397 32.5201 19.9997 32.1267 19.9997 31.6601C19.9997 31.1934 19.8397 30.8001 19.5197 30.4801C19.1997 30.1601 18.7997 30.0001 18.3197 30.0001ZM25.4797 12.1601C25.3197 12.3201 25.1997 12.5001 25.1197 12.7001C25.0397 12.9001 24.9997 13.1067 24.9997 13.3201C24.9997 13.7201 25.1264 14.0734 25.3797 14.3801C25.633 14.6867 25.953 14.8801 26.3397 14.9601C26.7264 15.0401 27.0997 14.9867 27.4597 14.8001C27.8197 14.6134 28.073 14.3334 28.2197 13.9601C28.3664 13.5867 28.3797 13.2134 28.2597 12.8401C28.1397 12.4667 27.913 12.1667 27.5797 11.9401C27.2464 11.7134 26.8864 11.6201 26.4997 11.6601C26.113 11.7001 25.773 11.8667 25.4797 12.1601ZM19.9997 11.6801H9.99969C9.54635 11.6801 9.15302 11.8401 8.81969 12.1601C8.48635 12.4801 8.31969 12.8734 8.31969 13.3401C8.31969 13.8067 8.48635 14.2001 8.81969 14.5201C9.15302 14.8401 9.54635 15.0001 9.99969 15.0001H19.9997C20.453 15.0001 20.8464 14.8401 21.1797 14.5201C21.513 14.2001 21.6797 13.8067 21.6797 13.3401C21.6797 12.8734 21.513 12.4801 21.1797 12.1601C20.8464 11.8401 20.453 11.6801 19.9997 11.6801ZM19.9997 21.6801H9.99969C9.54635 21.6801 9.15302 21.8401 8.81969 22.1601C8.48635 22.4801 8.31969 22.8734 8.31969 23.3401C8.31969 23.8067 8.48635 24.2001 8.81969 24.5201C9.15302 24.8401 9.54635 25.0001 9.99969 25.0001H19.9997C20.453 25.0001 20.8464 24.8401 21.1797 24.5201C21.513 24.2001 21.6797 23.8067 21.6797 23.3401C21.6797 22.8734 21.513 22.4801 21.1797 22.1601C20.8464 21.8401 20.453 21.6801 19.9997 21.6801ZM36.6797 25.0001H35.7197V23.3201C35.7197 22.4134 35.493 21.5801 35.0397 20.8201C34.5864 20.0601 33.9797 19.4534 33.2197 19.0001C32.4597 18.5467 31.6264 18.3201 30.7197 18.3201C29.813 18.3201 28.9797 18.5467 28.2197 19.0001C27.4597 19.4534 26.853 20.0601 26.3997 20.8201C25.9464 21.5801 25.7197 22.4134 25.7197 23.3201V25.0001H24.7597C24.3064 25.0001 23.913 25.1601 23.5797 25.4801C23.2464 25.8001 23.0797 26.2001 23.0797 26.6801V35.0001C23.0797 35.4534 23.2464 35.8467 23.5797 36.1801C23.913 36.5134 24.3064 36.6801 24.7597 36.6801H36.6797C37.133 36.6801 37.5197 36.5134 37.8397 36.1801C38.1597 35.8467 38.3197 35.4534 38.3197 35.0001V26.6801C38.3197 26.2001 38.1597 25.8001 37.8397 25.4801C37.5197 25.1601 37.133 25.0001 36.6797 25.0001ZM30.7197 31.6801C30.373 31.6801 30.0597 31.5867 29.7797 31.4001C29.4997 31.2134 29.2997 30.9601 29.1797 30.6401C29.0597 30.3201 29.033 29.9934 29.0997 29.6601C29.1664 29.3267 29.313 29.0467 29.5397 28.8201C29.7664 28.5934 30.0464 28.4467 30.3797 28.3801C30.713 28.3134 31.0397 28.3401 31.3597 28.4601C31.6797 28.5801 31.933 28.7801 32.1197 29.0601C32.3064 29.3401 32.3997 29.6534 32.3997 30.0001C32.3997 30.4534 32.233 30.8467 31.8997 31.1801C31.5664 31.5134 31.173 31.6801 30.7197 31.6801ZM32.3997 25.0001H29.0397V23.3201C29.0397 22.8667 29.2064 22.4801 29.5397 22.1601C29.873 21.8401 30.2664 21.6801 30.7197 21.6801C31.173 21.6801 31.5664 21.8401 31.8997 22.1601C32.233 22.4801 32.3997 22.8667 32.3997 23.3201V25.0001Z" fill="#6D6E70"/>
</svg>
