<svg width="40" height="40" viewBox="0 0 40 40" fill="none" xmlns="http://www.w3.org/2000/svg">
<path d="M35.0003 6.67995H5.00031C4.54698 6.67995 4.15365 6.83995 3.82031 7.15995C3.48698 7.47995 3.32031 7.86661 3.32031 8.31995V31.6799C3.32031 32.1333 3.48698 32.5199 3.82031 32.8399C4.15365 33.1599 4.54698 33.3199 5.00031 33.3199H35.0003C35.4536 33.3199 35.847 33.1599 36.1803 32.8399C36.5136 32.5199 36.6803 32.1333 36.6803 31.6799V8.31995C36.6803 7.86661 36.5136 7.47995 36.1803 7.15995C35.847 6.83995 35.4536 6.67995 35.0003 6.67995ZM33.3203 9.99995V12.3599L20.0003 19.7599L6.68031 12.3599V9.99995H33.3203ZM6.68031 29.9999V16.1599L19.2003 23.1199C19.4403 23.2533 19.7136 23.3199 20.0203 23.3199C20.327 23.3199 20.6003 23.2533 20.8403 23.1199L33.3203 16.1599V29.9999H6.68031Z" fill="#6D6E70"/>
</svg>
