<svg width="40" height="40" viewBox="0 0 40 40" fill="none" xmlns="http://www.w3.org/2000/svg">
<path d="M35.0003 16.6801H5.00031C4.54698 16.6801 4.15365 16.8401 3.82031 17.1601C3.48698 17.4801 3.32031 17.8667 3.32031 18.3201V35.0001C3.32031 35.4534 3.48698 35.8467 3.82031 36.1801C4.15365 36.5134 4.54698 36.6801 5.00031 36.6801H35.0003C35.4536 36.6801 35.847 36.5134 36.1803 36.1801C36.5136 35.8467 36.6803 35.4534 36.6803 35.0001V18.3201C36.6803 17.8667 36.5136 17.4801 36.1803 17.1601C35.847 16.8401 35.4536 16.6801 35.0003 16.6801ZM33.3203 33.3201H6.68031V20.0001H33.3203V33.3201ZM35.0003 10.0001H5.00031C4.54698 10.0001 4.15365 10.1601 3.82031 10.4801C3.48698 10.8001 3.32031 11.2001 3.32031 11.6801V13.3201C3.32031 13.8001 3.48698 14.2001 3.82031 14.5201C4.15365 14.8401 4.54698 15.0001 5.00031 15.0001C5.45365 15.0001 5.84698 14.8401 6.18031 14.5201C6.51365 14.2001 6.68031 13.8001 6.68031 13.3201H33.3203C33.3203 13.8001 33.487 14.2001 33.8203 14.5201C34.1536 14.8401 34.547 15.0001 35.0003 15.0001C35.4536 15.0001 35.847 14.8401 36.1803 14.5201C36.5136 14.2001 36.6803 13.8001 36.6803 13.3201V11.6801C36.6803 11.2001 36.5136 10.8001 36.1803 10.4801C35.847 10.1601 35.4536 10.0001 35.0003 10.0001ZM35.0003 3.32005H5.00031C4.54698 3.32005 4.15365 3.48672 3.82031 3.82005C3.48698 4.15339 3.32031 4.54672 3.32031 5.00006V6.68005C3.32031 7.13339 3.48698 7.52005 3.82031 7.84005C4.15365 8.16006 4.54698 8.32006 5.00031 8.32006C5.45365 8.32006 5.84698 8.16006 6.18031 7.84005C6.51365 7.52005 6.68031 7.13339 6.68031 6.68005H33.3203C33.3203 7.13339 33.487 7.52005 33.8203 7.84005C34.1536 8.16006 34.547 8.32006 35.0003 8.32006C35.4536 8.32006 35.847 8.16006 36.1803 7.84005C36.5136 7.52005 36.6803 7.13339 36.6803 6.68005V5.00006C36.6803 4.54672 36.5136 4.15339 36.1803 3.82005C35.847 3.48672 35.4536 3.32005 35.0003 3.32005ZM28.3203 28.3201C28.667 28.3201 28.9803 28.2267 29.2603 28.0401C29.5403 27.8534 29.7403 27.6067 29.8603 27.3001C29.9803 26.9934 30.0136 26.6734 29.9603 26.3401C29.907 26.0067 29.7603 25.7334 29.5203 25.5201C29.2003 25.1734 28.807 25.0001 28.3403 25.0001C27.8736 25.0001 27.4803 25.1734 27.1603 25.5201C26.9203 25.7334 26.767 26.0067 26.7003 26.3401C26.6336 26.6734 26.667 26.9934 26.8003 27.3001C26.9336 27.6067 27.1403 27.8534 27.4203 28.0401C27.7003 28.2267 28.0003 28.3201 28.3203 28.3201ZM11.6803 28.3201H21.6803C22.1336 28.3201 22.5203 28.1601 22.8403 27.8401C23.1603 27.5201 23.3203 27.1267 23.3203 26.6601C23.3203 26.1934 23.1603 25.8001 22.8403 25.4801C22.5203 25.1601 22.1336 25.0001 21.6803 25.0001H11.6803C11.2003 25.0001 10.8003 25.1601 10.4803 25.4801C10.1603 25.8001 10.0003 26.1934 10.0003 26.6601C10.0003 27.1267 10.1603 27.5201 10.4803 27.8401C10.8003 28.1601 11.2003 28.3201 11.6803 28.3201Z" fill="#6D6E70"/>
</svg>
