<svg width="34" height="30" viewBox="0 0 34 30" fill="none" xmlns="http://www.w3.org/2000/svg">
<path d="M31.68 30H1.68C1.22667 30 0.833333 29.84 0.5 29.52C0.166667 29.2 0 28.8 0 28.32V1.68C0 1.2 0.166667 0.800001 0.5 0.480001C0.833333 0.160001 1.22667 0 1.68 0H31.68C32.1333 0 32.5267 0.160001 32.86 0.480001C33.1933 0.800001 33.36 1.2 33.36 1.68V28.32C33.36 28.8 33.1933 29.2 32.86 29.52C32.5267 29.84 32.1333 30 31.68 30ZM3.36 26.68H30V3.32H3.36V26.68ZM26.2 11.2C26.52 10.8533 26.68 10.4533 26.68 10C26.68 9.54667 26.52 9.16 26.2 8.84C26.04 8.68 25.8533 8.56 25.64 8.48C25.32 8.34667 25 8.31333 24.68 8.38C24.36 8.44667 24.08 8.6 23.84 8.84C23.52 9.16 23.36 9.54667 23.36 10C23.36 10.2133 23.4 10.4267 23.48 10.64C23.56 10.8533 23.68 11.04 23.84 11.2C24.16 11.52 24.5533 11.68 25.02 11.68C25.4867 11.68 25.88 11.52 26.2 11.2ZM20 10C20 9.54667 19.84 9.15333 19.52 8.82C19.2 8.48667 18.8133 8.32 18.36 8.32H8.36C7.88 8.32 7.48 8.48667 7.16 8.82C6.84 9.15333 6.68 9.54667 6.68 10C6.68 10.4533 6.84 10.8467 7.16 11.18C7.48 11.5133 7.88 11.68 8.36 11.68H18.36C18.8133 11.68 19.2 11.5133 19.52 11.18C19.84 10.8467 20 10.4533 20 10ZM26.68 20C26.68 19.5467 26.52 19.1533 26.2 18.82C25.88 18.4867 25.48 18.32 25 18.32H15C14.5467 18.32 14.16 18.4867 13.84 18.82C13.52 19.1533 13.36 19.5467 13.36 20C13.36 20.4533 13.52 20.8467 13.84 21.18C14.16 21.5133 14.5467 21.68 15 21.68H25C25.48 21.68 25.88 21.5133 26.2 21.18C26.52 20.8467 26.68 20.4533 26.68 20ZM8.68 21.68L9 21.56L9.28 21.4L9.52 21.2C9.86667 20.88 10.0333 20.4867 10.02 20.02C10.0067 19.5533 9.84 19.16 9.52 18.84L9.28 18.6L8.68 18.32C8.36 18.2667 8.04 18.3067 7.72 18.44C7.50667 18.52 7.32 18.64 7.16 18.8C6.84 19.12 6.68 19.5133 6.68 19.98C6.68 20.4467 6.84 20.8533 7.16 21.2C7.32 21.3333 7.5 21.4467 7.7 21.54C7.9 21.6333 8.12 21.68 8.36 21.68H8.68Z" fill="#6D6E70"/>
</svg>
