<svg width="38" height="36" viewBox="0 0 38 36" fill="none" xmlns="http://www.w3.org/2000/svg">
<path d="M5.68027 15.48C6.13361 15.48 6.52027 15.32 6.84027 15C7.16027 14.68 7.32027 14.2934 7.32027 13.84V3.84002H30.6803V15.48C30.6803 15.96 30.8403 16.36 31.1603 16.68C31.4803 17 31.8736 17.16 32.3403 17.16C32.8069 17.16 33.2003 17 33.5203 16.68C33.8403 16.36 34.0003 15.9734 34.0003 15.52V2.16002C34.0003 1.70669 33.8403 1.32002 33.5203 1.00002C33.2003 0.680019 32.8003 0.52002 32.3203 0.52002H5.68027C5.20027 0.493355 4.80027 0.646687 4.48027 0.980019C4.16027 1.31335 4.00027 1.70669 4.00027 2.16002V13.84C4.00027 14.2934 4.16027 14.6867 4.48027 15.02C4.80027 15.3534 5.20027 15.52 5.68027 15.52V15.48ZM24.4803 7.68002C24.1603 8.00002 24.0003 8.38669 24.0003 8.84002C24.0003 9.29335 24.1603 9.68669 24.4803 10.02C24.8003 10.3534 25.1936 10.52 25.6603 10.52C26.1269 10.52 26.5203 10.3534 26.8403 10.02C27.1603 9.68669 27.3203 9.29335 27.3203 8.84002C27.3203 8.38669 27.1603 7.99335 26.8403 7.66002C26.5203 7.32669 26.1269 7.16002 25.6603 7.16002C25.1936 7.16002 24.8003 7.33335 24.4803 7.68002ZM12.3203 7.16002C11.8669 7.16002 11.4803 7.32669 11.1603 7.66002C10.8403 7.99335 10.6803 8.38669 10.6803 8.84002C10.6803 9.29335 10.8403 9.68002 11.1603 10C11.4803 10.32 11.8669 10.4934 12.3203 10.52H19.0003C19.4536 10.4934 19.8469 10.32 20.1803 10C20.5136 9.68002 20.6803 9.29335 20.6803 8.84002C20.6803 8.38669 20.5136 7.99335 20.1803 7.66002C19.8469 7.32669 19.4536 7.16002 19.0003 7.16002H12.3203ZM27.9203 18.92C26.9603 16.84 25.5069 15.1867 23.5603 13.96C21.6136 12.7334 19.4936 12.1334 17.2003 12.16C14.9069 12.1867 12.8003 12.84 10.8803 14.12C8.96027 15.4 7.54694 17.0934 6.64027 19.2C5.33361 19.5734 4.20027 20.2267 3.24027 21.16C2.28027 22.0934 1.58027 23.1934 1.14027 24.46C0.700273 25.7267 0.580273 27.0267 0.780273 28.36C0.980273 29.6934 1.46694 30.9067 2.24027 32C3.01361 33.0934 3.99361 33.9467 5.18027 34.56C6.36694 35.1734 7.64027 35.4934 9.00027 35.52H29.0003C30.5736 35.52 32.0269 35.12 33.3603 34.32C34.6936 33.52 35.7269 32.4267 36.4603 31.04C37.1936 29.6534 37.5069 28.18 37.4003 26.62C37.2936 25.06 36.7936 23.64 35.9003 22.36C35.0069 21.08 33.8403 20.1334 32.4003 19.52C30.9603 18.9067 29.4669 18.7067 27.9203 18.92ZM29.0003 32.24H9.00027C8.14694 32.24 7.36027 32.04 6.64027 31.64C5.92027 31.24 5.33361 30.6934 4.88027 30C4.42694 29.3067 4.16027 28.5334 4.08027 27.68C4.00027 26.8267 4.12694 26.02 4.46027 25.26C4.79361 24.5 5.28694 23.86 5.94027 23.34C6.59361 22.82 7.33361 22.48 8.16027 22.32C8.45361 22.2667 8.72027 22.1467 8.96027 21.96C9.20027 21.7734 9.36027 21.5334 9.44027 21.24C10.0003 19.6667 10.9403 18.3667 12.2603 17.34C13.5803 16.3134 15.0736 15.74 16.7403 15.62C18.4069 15.5 19.9669 15.8534 21.4203 16.68C22.8736 17.5067 23.9869 18.6534 24.7603 20.12C23.5336 20.84 22.5469 21.8 21.8003 23C21.6403 23.2667 21.5603 23.5467 21.5603 23.84C21.5603 24.1334 21.6336 24.4067 21.7803 24.66C21.9269 24.9134 22.1269 25.1134 22.3803 25.26C22.6336 25.4067 22.9136 25.4867 23.2203 25.5C23.5269 25.5134 23.8069 25.44 24.0603 25.28C24.3136 25.12 24.5203 24.92 24.6803 24.68C25.2936 23.6134 26.1736 22.88 27.3203 22.48C27.8803 22.2934 28.4403 22.1867 29.0003 22.16C29.9069 22.16 30.7403 22.3867 31.5003 22.84C32.2603 23.2934 32.8669 23.9 33.3203 24.66C33.7736 25.42 34.0003 26.2534 34.0003 27.16C34.0003 28.0667 33.7736 28.9067 33.3203 29.68C32.8669 30.4534 32.2603 31.06 31.5003 31.5C30.7403 31.94 29.9069 32.16 29.0003 32.16V32.24Z" fill="#6D6E70"/>
</svg>
