<svg width="34" height="34" viewBox="0 0 34 34" fill="none" xmlns="http://www.w3.org/2000/svg">
<path d="M26.6602 26.3201C25.5402 26.3201 24.4602 26.1201 23.4202 25.7201C24.1402 27.5601 24.9669 28.7867 25.9002 29.4001C26.7269 29.9601 27.7402 30.0934 28.9402 29.8001C29.1802 29.9334 29.3736 30.1267 29.5202 30.3801C29.6669 30.6334 29.7269 30.8934 29.7002 31.1601C29.7002 31.8534 29.3669 32.4267 28.7002 32.8801C27.9536 33.4134 26.9269 33.6801 25.6202 33.6801C23.6202 33.6801 21.9136 33.0401 20.5002 31.7601C19.0336 30.4534 18.0069 28.5201 17.4202 25.9601C17.3402 25.8267 17.2336 25.7467 17.1002 25.7201C16.9669 25.6934 16.8336 25.7201 16.7002 25.8001C16.6469 25.8267 16.5936 25.8801 16.5402 25.9601C15.9269 28.5201 14.9002 30.4534 13.4602 31.7601C12.0469 33.0401 10.3402 33.6801 8.34023 33.6801C7.03357 33.6801 6.0069 33.4134 5.26023 32.8801C4.59357 32.4267 4.26023 31.8534 4.26023 31.1601C4.23357 30.8934 4.29357 30.6334 4.44023 30.3801C4.5869 30.1267 4.78023 29.9334 5.02023 29.8001C6.22023 30.0934 7.23357 29.9601 8.06023 29.4001C8.99357 28.7867 9.82023 27.5601 10.5402 25.7201C9.50023 26.1201 8.42023 26.3201 7.30023 26.3201C6.0469 26.3201 4.92023 26.0734 3.92023 25.5801C2.92023 25.0867 2.14023 24.4201 1.58023 23.5801C1.02023 22.7401 0.740234 21.8134 0.740234 20.8001C0.740234 20.1867 0.853568 19.7267 1.08023 19.4201C1.3069 19.1134 1.6069 18.9601 1.98023 18.9601C2.22023 18.9601 2.43357 19.0134 2.62023 19.1201C3.23357 20.1334 3.82023 20.8534 4.38023 21.2801C4.99357 21.7601 5.7269 22.0001 6.58023 22.0001C7.22023 22.0534 7.8269 21.9201 8.40023 21.6001C8.97357 21.2801 9.4069 20.8134 9.70023 20.2001C8.74023 18.7067 8.0069 17.1134 7.50023 15.4201C6.99357 13.7267 6.71357 11.9867 6.66023 10.2001C6.66023 6.94672 7.54023 4.48672 9.30023 2.82006C11.0602 1.15339 13.6202 0.320053 16.9802 0.320053C20.3402 0.320053 22.9002 1.15339 24.6602 2.82006C26.4202 4.48672 27.3002 6.94672 27.3002 10.2001C27.2469 11.9867 26.9669 13.7267 26.4602 15.4201C25.9536 17.1134 25.2202 18.7067 24.2602 20.2001C24.5536 20.7867 24.9869 21.2467 25.5602 21.5801C26.1336 21.9134 26.7402 22.0534 27.3802 22.0001C28.2336 22.0001 28.9602 21.7867 29.5602 21.3601C30.1602 20.9334 30.7536 20.2134 31.3402 19.2001C31.5269 19.0934 31.7402 19.0401 31.9802 19.0401C32.3536 19.0401 32.6536 19.1934 32.8802 19.5001C33.1069 19.8067 33.2202 20.2667 33.2202 20.8801C33.2202 21.8667 32.9402 22.7734 32.3802 23.6001C31.8202 24.4267 31.0402 25.0867 30.0402 25.5801C29.0402 26.0734 27.9136 26.3201 26.6602 26.3201Z" fill="#6D6E70"/>
</svg>
